<svg width="2975" height="1123" xmlns="http://www.w3.org/2000/svg" xmlns:xlink="http://www.w3.org/1999/xlink" xml:space="preserve" overflow="hidden"><defs><filter id="fx0" x="-10%" y="-10%" width="120%" height="120%" filterUnits="userSpaceOnUse" primitiveUnits="userSpaceOnUse"><feComponentTransfer color-interpolation-filters="sRGB"><feFuncR type="discrete" tableValues="0.000000 0.000000"/><feFuncG type="discrete" tableValues="0.000000 0.000000"/><feFuncB type="discrete" tableValues="0.000000 0.000000"/><feFuncA type="linear" slope="0.380392" intercept="0.000000"/></feComponentTransfer><feGaussianBlur stdDeviation="4.811899 4.811899"/></filter><filter id="fx1" x="-10%" y="-10%" width="120%" height="120%" filterUnits="userSpaceOnUse" primitiveUnits="userSpaceOnUse"><feComponentTransfer color-interpolation-filters="sRGB"><feFuncR type="discrete" tableValues="0.000000 0.000000"/><feFuncG type="discrete" tableValues="0.000000 0.000000"/><feFuncB type="discrete" tableValues="0.000000 0.000000"/><feFuncA type="linear" slope="0.380392" intercept="0.000000"/></feComponentTransfer><feGaussianBlur stdDeviation="4.811899 4.811899"/></filter><filter id="fx2" x="-10%" y="-10%" width="120%" height="120%" filterUnits="userSpaceOnUse" primitiveUnits="userSpaceOnUse"><feComponentTransfer color-interpolation-filters="sRGB"><feFuncR type="discrete" tableValues="0.000000 0.000000"/><feFuncG type="discrete" tableValues="0.000000 0.000000"/><feFuncB type="discrete" tableValues="0.000000 0.000000"/><feFuncA type="linear" slope="0.380392" intercept="0.000000"/></feComponentTransfer><feGaussianBlur stdDeviation="4.811899 4.811899"/></filter><filter id="fx3" x="-10%" y="-10%" width="120%" height="120%" filterUnits="userSpaceOnUse" primitiveUnits="userSpaceOnUse"><feComponentTransfer color-interpolation-filters="sRGB"><feFuncR type="discrete" tableValues="0.000000 0.000000"/><feFuncG type="discrete" tableValues="0.000000 0.000000"/><feFuncB type="discrete" tableValues="0.000000 0.000000"/><feFuncA type="linear" slope="0.380392" intercept="0.000000"/></feComponentTransfer><feGaussianBlur stdDeviation="4.811899 4.811899"/></filter><filter id="fx4" x="-10%" y="-10%" width="120%" height="120%" filterUnits="userSpaceOnUse" primitiveUnits="userSpaceOnUse"><feComponentTransfer color-interpolation-filters="sRGB"><feFuncR type="discrete" tableValues="0.000000 0.000000"/><feFuncG type="discrete" tableValues="0.000000 0.000000"/><feFuncB type="discrete" tableValues="0.000000 0.000000"/><feFuncA type="linear" slope="0.380392" intercept="0.000000"/></feComponentTransfer><feGaussianBlur stdDeviation="4.811899 4.811899"/></filter><clipPath id="clip5"><rect x="1.56415" y="0.282227" width="434.871" height="156.872"/></clipPath><clipPath id="clip6"><rect x="1.56396" y="1.26135" width="496.872" height="154.892"/></clipPath><clipPath id="clip7"><rect x="1.56421" y="0.282227" width="808.871" height="154.872"/></clipPath><clipPath id="clip8"><rect x="1.56396" y="1.28223" width="217.872" height="154.872"/></clipPath><clipPath id="clip9"><rect x="1.56421" y="0.28241" width="325.871" height="154.872"/></clipPath></defs><g transform="translate(-572 -627)"><g><text fill="#000000" fill-opacity="1" font-family="Courier New,Courier New_MSFontService,sans-serif" font-style="normal" font-variant="normal" font-weight="400" font-stretch="normal" font-size="165" text-anchor="start" direction="ltr" writing-mode="lr-tb" unicode-bidi="normal" text-decoration="none" transform="matrix(1 0 0 1 676.333 1222)">SFBA_Real1_37_12_01_FP.AT2</text><g clip-path="url(#clip5)" filter="url(#fx0)" transform="translate(640 885)"><g><g><path d="M20.4999 142.718C20.4999 109.028 25.0515 81.7177 30.6663 81.7177L212.919 81.7181C218.534 81.7181 223.085 54.4074 223.085 20.7179 223.085 54.4074 227.637 81.7181 233.252 81.7181L407.333 81.7181C412.948 81.7181 417.5 109.029 417.5 142.718" stroke="#003262" stroke-width="9" stroke-linecap="butt" stroke-linejoin="round" stroke-miterlimit="10" stroke-opacity="1" fill="none" fill-rule="evenodd"/></g></g></g><path d="M660.5 1020.5C660.5 986.811 665.052 959.5 670.666 959.5L852.919 959.5C858.534 959.5 863.085 932.19 863.085 898.5 863.085 932.19 867.637 959.5 873.252 959.5L1047.33 959.5C1052.95 959.5 1057.5 986.811 1057.5 1020.5" stroke="#003262" stroke-width="9.16667" stroke-linecap="butt" stroke-linejoin="round" stroke-miterlimit="10" stroke-opacity="1" fill="none" fill-rule="evenodd"/><g clip-path="url(#clip6)" filter="url(#fx1)" transform="translate(1168 1320)"><g><g><path d="M479.5 15.6971C479.5 48.84 475.022 75.7076 469.499 75.7076L255.278 75.7076C249.754 75.7076 245.277 102.575 245.277 135.718 245.277 102.575 240.799 75.7076 235.276 75.7076L30.5009 75.7076C24.9773 75.7076 20.4996 48.84 20.4996 15.6971" stroke="#003262" stroke-width="9" stroke-linecap="butt" stroke-linejoin="round" stroke-miterlimit="10" stroke-opacity="1" fill="none" fill-rule="evenodd"/></g></g></g><path d="M1647.5 1328.48C1647.5 1361.62 1643.02 1388.49 1637.5 1388.49L1423.28 1388.49C1417.75 1388.49 1413.28 1415.36 1413.28 1448.5 1413.28 1415.36 1408.8 1388.49 1403.28 1388.49L1198.5 1388.49C1192.98 1388.49 1188.5 1361.62 1188.5 1328.48" stroke="#003262" stroke-width="9.16667" stroke-linecap="butt" stroke-linejoin="round" stroke-miterlimit="10" stroke-opacity="1" fill="none" fill-rule="evenodd"/><g clip-path="url(#clip7)" filter="url(#fx2)" transform="translate(1742 885)"><g><g><path d="M20.4999 140.718C20.4999 107.581 24.9767 80.7175 30.4992 80.7175L403.934 80.7183C409.457 80.7183 413.933 53.8552 413.933 20.7179 413.933 53.8552 418.41 80.7183 423.933 80.7183L781.501 80.7183C787.023 80.7183 791.5 107.581 791.5 140.719" stroke="#003262" stroke-width="9" stroke-linecap="butt" stroke-linejoin="round" stroke-miterlimit="10" stroke-opacity="1" fill="none" fill-rule="evenodd"/></g></g></g><path d="M1762.5 1018.5C1762.5 985.363 1766.98 958.5 1772.5 958.5L2145.93 958.5C2151.46 958.5 2155.93 931.637 2155.93 898.5 2155.93 931.637 2160.41 958.5 2165.93 958.5L2523.5 958.5C2529.02 958.5 2533.5 985.364 2533.5 1018.5" stroke="#003262" stroke-width="9.16667" stroke-linecap="butt" stroke-linejoin="round" stroke-miterlimit="10" stroke-opacity="1" fill="none" fill-rule="evenodd"/><text fill="#000000" fill-opacity="1" font-family="Cambay Devanagari,Cambay Devanagari_MSFontService,sans-serif" font-style="normal" font-variant="normal" font-weight="400" font-stretch="normal" font-size="165" text-anchor="start" direction="ltr" writing-mode="lr-tb" unicode-bidi="normal" text-decoration="none" transform="matrix(1 0 0 1 673 831)">Region</text><text fill="#000000" fill-opacity="1" font-family="Cambay Devanagari,Cambay Devanagari_MSFontService,sans-serif" font-style="normal" font-variant="normal" font-weight="400" font-stretch="normal" font-size="165" text-anchor="start" direction="ltr" writing-mode="lr-tb" unicode-bidi="normal" text-decoration="none" transform="matrix(1 0 0 1 1094.67 1599)">Realization</text><text fill="#000000" fill-opacity="1" font-family="Cambay Devanagari,Cambay Devanagari_MSFontService,sans-serif" font-style="normal" font-variant="normal" font-weight="400" font-stretch="normal" font-size="165" text-anchor="start" direction="ltr" writing-mode="lr-tb" unicode-bidi="normal" text-decoration="none" transform="matrix(1 0 0 1 1909.67 831)">Location</text><g clip-path="url(#clip8)" filter="url(#fx3)" transform="translate(2643 1320)"><g><g><path d="M200.5 15.7182C200.5 48.8553 196.023 75.7183 190.5 75.7183L118.647 75.7181C113.125 75.7181 108.648 102.581 108.648 135.718 108.648 102.581 104.171 75.7181 98.648 75.7181L30.4994 75.7181C24.9767 75.7181 20.4998 48.8551 20.4998 15.718" stroke="#003262" stroke-width="9" stroke-linecap="butt" stroke-linejoin="round" stroke-miterlimit="10" stroke-opacity="1" fill="none" fill-rule="evenodd"/></g></g></g><path d="M2843.5 1328.5C2843.5 1361.64 2839.02 1388.5 2833.5 1388.5L2761.65 1388.5C2756.12 1388.5 2751.65 1415.36 2751.65 1448.5 2751.65 1415.36 2747.17 1388.5 2741.65 1388.5L2673.5 1388.5C2667.98 1388.5 2663.5 1361.64 2663.5 1328.5" stroke="#003262" stroke-width="9.16667" stroke-linecap="butt" stroke-linejoin="round" stroke-miterlimit="10" stroke-opacity="1" fill="none" fill-rule="evenodd"/><text fill="#000000" fill-opacity="1" font-family="Cambay Devanagari,Cambay Devanagari_MSFontService,sans-serif" font-style="normal" font-variant="normal" font-weight="400" font-stretch="normal" font-size="165" text-anchor="start" direction="ltr" writing-mode="lr-tb" unicode-bidi="normal" text-decoration="none" transform="matrix(1 0 0 1 2485.5 1599)">Direction</text><g clip-path="url(#clip9)" filter="url(#fx4)" transform="translate(2935 885)"><g><g><path d="M20.4999 140.718C20.4999 107.581 24.977 80.7179 30.4996 80.7179L157.464 80.7182C162.987 80.7182 167.464 53.8552 167.464 20.7181 167.464 53.8552 171.941 80.7182 177.463 80.7182L298.5 80.7182C304.023 80.7182 308.5 107.581 308.5 140.718" stroke="#003262" stroke-width="9" stroke-linecap="butt" stroke-linejoin="round" stroke-miterlimit="10" stroke-opacity="1" fill="none" fill-rule="evenodd"/></g></g></g><path d="M2955.5 1018.5C2955.5 985.363 2959.98 958.5 2965.5 958.5L3092.46 958.5C3097.99 958.5 3102.46 931.637 3102.46 898.5 3102.46 931.637 3106.94 958.5 3112.46 958.5L3233.5 958.5C3239.02 958.5 3243.5 985.363 3243.5 1018.5" stroke="#003262" stroke-width="9.16667" stroke-linecap="butt" stroke-linejoin="round" stroke-miterlimit="10" stroke-opacity="1" fill="none" fill-rule="evenodd"/><text fill="#000000" fill-opacity="1" font-family="Cambay Devanagari,Cambay Devanagari_MSFontService,sans-serif" font-style="normal" font-variant="normal" font-weight="400" font-stretch="normal" font-size="165" text-anchor="start" direction="ltr" writing-mode="lr-tb" unicode-bidi="normal" text-decoration="none" transform="matrix(1 0 0 1 2858.41 829)">Quantity</text></g></g></svg>